<?xml version="1.0" encoding="iso-8859-1"?>
<!-- Generator: Adobe Illustrator 19.0.0, SVG Export Plug-In . SVG Version: 6.00 Build 0)  -->
<svg version="1.1" id="Layer_1" xmlns="http://www.w3.org/2000/svg" xmlns:xlink="http://www.w3.org/1999/xlink" x="0px" y="0px"
	 viewBox="0 0 512 512" style="enable-background:new 0 0 512 512;" xml:space="preserve">
<g transform="translate(1 1)">
	<g>
		<g>
			<path d="M485.4-1H109.933c-14.507,0-25.6,11.093-25.6,25.6v247.467h-76.8C2.413,272.067-1,275.48-1,280.6v179.2
				c0,28.16,23.04,51.2,51.2,51.2h409.6c28.16,0,51.2-23.04,51.2-51.2V24.6C511,10.093,499.907-1,485.4-1z M16.067,459.8V289.133
				h68.267V459.8c0,18.773-15.36,34.133-34.133,34.133S16.067,478.573,16.067,459.8z M493.933,459.8
				c0,18.773-15.36,34.133-34.133,34.133H88.6c1.642-2.007,3.158-4.137,4.541-6.361c4.799-7.378,7.759-16.046,8.198-25.351
				c0.04-0.804,0.062-1.611,0.062-2.422V280.6v-256c0-5.12,3.413-8.533,8.533-8.533H485.4c5.12,0,8.533,3.413,8.533,8.533V459.8z"/>
			<path d="M459.8,84.333H135.533c-5.12,0-8.533,3.413-8.533,8.533v128c0,5.12,3.413,8.533,8.533,8.533H459.8
				c5.12,0,8.533-3.413,8.533-8.533v-128C468.333,87.747,464.92,84.333,459.8,84.333z M451.267,212.333h-307.2V101.4h307.2V212.333z
				"/>
			<path d="M459.8,41.667H135.533c-5.12,0-8.533,3.413-8.533,8.533s3.413,8.533,8.533,8.533H459.8c5.12,0,8.533-3.413,8.533-8.533
				S464.92,41.667,459.8,41.667z"/>
			<path d="M135.533,331.8h51.2c5.12,0,8.533-3.413,8.533-8.533v-51.2c0-5.12-3.413-8.533-8.533-8.533h-51.2
				c-5.12,0-8.533,3.413-8.533,8.533v51.2C127,328.387,130.413,331.8,135.533,331.8z M144.067,280.6H178.2v34.133h-34.133V280.6z"/>
			<path d="M135.533,425.667h51.2c5.12,0,8.533-3.413,8.533-8.533v-51.2c0-5.12-3.413-8.533-8.533-8.533h-51.2
				c-5.12,0-8.533,3.413-8.533,8.533v51.2C127,422.253,130.413,425.667,135.533,425.667z M144.067,374.467H178.2V408.6h-34.133
				V374.467z"/>
			<path d="M459.8,263.533H229.4c-5.12,0-8.533,3.413-8.533,8.533c0,5.12,3.413,8.533,8.533,8.533h230.4
				c5.12,0,8.533-3.413,8.533-8.533C468.333,266.947,464.92,263.533,459.8,263.533z"/>
			<path d="M229.4,323.267h85.333c5.12,0,8.533-3.413,8.533-8.533s-3.413-8.533-8.533-8.533H229.4c-5.12,0-8.533,3.413-8.533,8.533
				S224.28,323.267,229.4,323.267z"/>
			<path d="M459.8,357.4H229.4c-5.12,0-8.533,3.413-8.533,8.533s3.413,8.533,8.533,8.533h230.4c5.12,0,8.533-3.413,8.533-8.533
				S464.92,357.4,459.8,357.4z"/>
			<path d="M314.733,417.133c5.12,0,8.533-3.413,8.533-8.533s-3.413-8.533-8.533-8.533H229.4c-5.12,0-8.533,3.413-8.533,8.533
				s3.413,8.533,8.533,8.533H314.733z"/>
			<path d="M459.8,451.267H135.533c-5.12,0-8.533,3.413-8.533,8.533c0,5.12,3.413,8.533,8.533,8.533H459.8
				c5.12,0,8.533-3.413,8.533-8.533C468.333,454.68,464.92,451.267,459.8,451.267z"/>
		</g>
	</g>
</g>
<g>
</g>
<g>
</g>
<g>
</g>
<g>
</g>
<g>
</g>
<g>
</g>
<g>
</g>
<g>
</g>
<g>
</g>
<g>
</g>
<g>
</g>
<g>
</g>
<g>
</g>
<g>
</g>
<g>
</g>
</svg>
